<svg class="svg-icon" style="width: 1em;height: 1em;vertical-align: middle;fill: currentColor;overflow: hidden;" viewBox="0 0 1024 1024" version="1.1" xmlns="http://www.w3.org/2000/svg"><path d="M537.429333 24.746667c-9.386667-0.512-18.090667-0.853333-25.770666-0.853334-205.994667 0-380.416 153.770667-405.674667 357.546667-12.458667 100.010667 12.629333 200.704 70.656 283.648 57.856 82.602667 143.530667 140.8 241.322667 163.84l10.069333 2.389333 83.968 145.066667 83.968-145.066667 10.069333-2.389333c89.088-20.992 169.472-71.850667 226.474667-143.530667 57.173333-71.850667 88.746667-161.792 88.746667-253.44 0-215.04-168.618667-393.898667-383.829334-407.210666z" fill="#070F1B" /><path d="M538.794667 0.853333c-8.874667-0.512-18.090667-0.853333-27.136-0.853333C293.717333 0 109.056 162.645333 82.261333 378.538667c-27.306667 219.306667 116.565333 423.424 330.24 473.6l62.634667 108.202666 36.864 63.658667 36.864-63.658667 62.634667-108.202666C805.888 806.4 945.152 632.832 945.152 431.957333 945.152 204.288 766.805333 15.018667 538.794667 0.853333z m67.242666 828.074667l-10.069333 2.389333-83.968 145.066667-83.968-145.066667-10.069333-2.389333c-97.792-23.04-183.466667-81.066667-241.322667-163.84-58.026667-82.944-83.114667-183.637333-70.656-283.648C131.242667 177.664 305.664 23.893333 511.658667 23.893333c7.68 0 16.384 0.341333 25.770666 0.853334 215.210667 13.312 383.829333 192.341333 383.829334 407.210666 0 91.477333-31.573333 181.589333-88.746667 253.44-57.002667 71.509333-137.386667 122.538667-226.474667 143.530667z" fill="#9B7BFF" /><path d="M767.488 313.173333c-12.970667-6.485333-217.941333-99.328-217.941333-99.328s-21.504-10.922667-32.426667-10.922666-32.426667 10.922667-32.426667 10.922666-205.141333 92.842667-218.112 99.328c-12.970667 6.485333 0 12.970667 0 12.970667s174.933333 79.701333 207.189334 92.842667c25.941333 10.922667 32.426667 10.922667 43.178666 10.922666 10.922667 0 17.237333 0 43.178667-10.922666 21.504-10.922667 112.128-51.712 166.229333-75.605334v69.12l-17.237333 17.237334 23.722667 23.722666 23.722666-23.722666-17.066666-17.237334v-73.386666c17.237333-6.485333 27.989333-12.970667 27.989333-12.970667s12.8-6.485333 0-12.970667z" fill="#9B7BFF" /><path d="M517.12 474.624c-10.922667 0-17.237333 0-43.178667-10.922667-15.189333-6.485333-66.901333-30.208-114.346666-51.712v157.525334c47.616 21.504 99.328 45.397333 114.346666 51.712 25.941333 10.922667 32.426667 10.922667 43.178667 10.922666 10.922667 0 17.237333 0 43.178667-10.922666 15.189333-6.485333 66.901333-30.208 114.346666-51.712v-157.525334c-47.616 21.504-99.328 45.397333-114.346666 51.712-25.941333 13.141333-32.426667 10.922667-43.178667 10.922667z" fill="#9B7BFF" /></svg>